<svg xmlns="http://www.w3.org/2000/svg" xmlns:xlink="http://www.w3.org/1999/xlink" width="156" zoomAndPan="magnify" viewBox="0 0 116.88 44.249999" height="59" preserveAspectRatio="xMidYMid meet" version="1.2"><defs/><g id="aac8f99ef7"><g style="fill:#004aad;fill-opacity:1;"><g transform="translate(22.835505, 31.382031)"><path style="stroke:none" d="M 16.296875 -1.3125 C 16.296875 -1.3125 16.273438 -1.203125 16.234375 -0.984375 C 16.191406 -0.765625 16.09375 -0.546875 15.9375 -0.328125 C 15.78125 -0.109375 15.539062 0 15.21875 0 C 14.820312 0 14.460938 -0.015625 14.140625 -0.046875 C 13.828125 -0.078125 13.476562 -0.09375 13.09375 -0.09375 C 12.757812 -0.09375 12.460938 -0.0820312 12.203125 -0.0625 C 11.941406 -0.0390625 11.644531 -0.03125 11.3125 -0.03125 C 10.914062 -0.03125 10.644531 -0.101562 10.5 -0.25 C 10.363281 -0.40625 10.289062 -0.582031 10.28125 -0.78125 C 10.269531 -0.976562 10.253906 -1.132812 10.234375 -1.25 C 10.234375 -1.351562 10.21875 -1.578125 10.1875 -1.921875 C 10.15625 -2.273438 10.113281 -2.632812 10.0625 -3 C 10.019531 -3.363281 9.945312 -3.585938 9.84375 -3.671875 C 9.75 -3.753906 9.707031 -3.789062 9.71875 -3.78125 C 9.726562 -3.769531 9.679688 -3.800781 9.578125 -3.875 C 9.554688 -3.894531 9.296875 -3.910156 8.796875 -3.921875 C 8.304688 -3.929688 7.878906 -3.9375 7.515625 -3.9375 C 6.898438 -3.9375 6.546875 -3.851562 6.453125 -3.6875 C 6.367188 -3.519531 6.296875 -3.253906 6.234375 -2.890625 C 6.234375 -2.796875 6.222656 -2.566406 6.203125 -2.203125 C 6.179688 -1.847656 6.144531 -1.492188 6.09375 -1.140625 C 6.050781 -0.796875 6 -0.566406 5.9375 -0.453125 C 5.820312 -0.304688 5.695312 -0.195312 5.5625 -0.125 C 5.4375 -0.0625 5.242188 -0.03125 4.984375 -0.03125 C 4.679688 -0.03125 4.398438 -0.0351562 4.140625 -0.046875 C 3.890625 -0.0546875 3.613281 -0.0625 3.3125 -0.0625 C 2.988281 -0.0625 2.660156 -0.0546875 2.328125 -0.046875 C 2.003906 -0.0351562 1.675781 -0.03125 1.34375 -0.03125 C 1.0625 -0.03125 0.78125 -0.078125 0.5 -0.171875 C 0.226562 -0.273438 0.09375 -0.546875 0.09375 -0.984375 C 0.09375 -1.117188 0.117188 -1.328125 0.171875 -1.609375 C 0.234375 -1.890625 0.296875 -2.207031 0.359375 -2.5625 C 0.421875 -3 0.46875 -3.378906 0.5 -3.703125 C 0.539062 -4.035156 0.601562 -4.410156 0.6875 -4.828125 C 0.75 -5.191406 0.8125 -5.523438 0.875 -5.828125 C 0.945312 -6.140625 1.015625 -6.484375 1.078125 -6.859375 C 1.191406 -7.398438 1.269531 -7.882812 1.3125 -8.3125 C 1.351562 -8.738281 1.421875 -9.226562 1.515625 -9.78125 C 1.597656 -10.320312 1.679688 -10.800781 1.765625 -11.21875 C 1.859375 -11.632812 1.9375 -12.113281 2 -12.65625 C 2.039062 -13.03125 2.078125 -13.375 2.109375 -13.6875 C 2.148438 -14.007812 2.203125 -14.367188 2.265625 -14.765625 C 2.347656 -15.203125 2.429688 -15.601562 2.515625 -15.96875 C 2.609375 -16.34375 2.695312 -16.75 2.78125 -17.1875 C 2.914062 -17.882812 3.007812 -18.503906 3.0625 -19.046875 C 3.125 -19.597656 3.226562 -20.210938 3.375 -20.890625 C 3.488281 -21.328125 3.601562 -21.726562 3.71875 -22.09375 C 3.84375 -22.46875 3.976562 -22.734375 4.125 -22.890625 C 4.4375 -23.128906 4.921875 -23.25 5.578125 -23.25 C 6.140625 -23.25 6.644531 -23.226562 7.09375 -23.1875 C 7.539062 -23.144531 8.039062 -23.125 8.59375 -23.125 C 9.007812 -23.125 9.425781 -23.128906 9.84375 -23.140625 C 10.257812 -23.148438 10.671875 -23.15625 11.078125 -23.15625 L 11.21875 -23.15625 C 11.65625 -23.15625 11.96875 -23.109375 12.15625 -23.015625 C 12.34375 -22.929688 12.507812 -22.75 12.65625 -22.46875 C 12.695312 -22.445312 12.726562 -22.382812 12.75 -22.28125 C 12.78125 -22.1875 12.804688 -22.117188 12.828125 -22.078125 C 12.828125 -22.078125 12.851562 -21.914062 12.90625 -21.59375 C 12.957031 -21.28125 13.023438 -20.925781 13.109375 -20.53125 C 13.203125 -20.132812 13.273438 -19.773438 13.328125 -19.453125 C 13.378906 -19.140625 13.40625 -18.984375 13.40625 -18.984375 C 13.5 -18.460938 13.566406 -17.988281 13.609375 -17.5625 C 13.648438 -17.132812 13.71875 -16.660156 13.8125 -16.140625 C 13.914062 -15.503906 14.015625 -14.925781 14.109375 -14.40625 C 14.210938 -13.894531 14.332031 -13.320312 14.46875 -12.6875 C 14.570312 -12.1875 14.664062 -11.722656 14.75 -11.296875 C 14.84375 -10.867188 14.921875 -10.40625 14.984375 -9.90625 C 15.097656 -9.226562 15.171875 -8.617188 15.203125 -8.078125 C 15.234375 -7.546875 15.289062 -6.941406 15.375 -6.265625 C 15.488281 -5.609375 15.613281 -4.925781 15.75 -4.21875 C 15.894531 -3.507812 16.019531 -2.882812 16.125 -2.34375 C 16.238281 -1.8125 16.296875 -1.46875 16.296875 -1.3125 Z M 9.25 -10.6875 C 9.25 -11.28125 9.207031 -11.863281 9.125 -12.4375 C 9.050781 -13.019531 8.976562 -13.53125 8.90625 -13.96875 C 8.832031 -14.40625 8.78125 -14.703125 8.75 -14.859375 C 8.726562 -15.117188 8.703125 -15.390625 8.671875 -15.671875 C 8.640625 -15.960938 8.601562 -16.128906 8.5625 -16.171875 C 8.5 -16.410156 8.390625 -16.53125 8.234375 -16.53125 C 8.097656 -16.53125 8.007812 -16.421875 7.96875 -16.203125 C 7.945312 -16.160156 7.914062 -16.035156 7.875 -15.828125 C 7.832031 -15.617188 7.789062 -15.414062 7.75 -15.21875 C 7.71875 -15.019531 7.691406 -14.890625 7.671875 -14.828125 C 7.628906 -14.628906 7.585938 -14.445312 7.546875 -14.28125 C 7.503906 -14.113281 7.457031 -13.929688 7.40625 -13.734375 C 7.40625 -13.671875 7.382812 -13.484375 7.34375 -13.171875 C 7.300781 -12.867188 7.25 -12.53125 7.1875 -12.15625 C 7.132812 -11.789062 7.085938 -11.457031 7.046875 -11.15625 C 7.003906 -10.863281 6.984375 -10.6875 6.984375 -10.625 C 6.984375 -10.125 7.085938 -9.8125 7.296875 -9.6875 C 7.503906 -9.570312 7.738281 -9.515625 8 -9.515625 C 8.21875 -9.515625 8.476562 -9.5625 8.78125 -9.65625 C 9.09375 -9.757812 9.25 -10.101562 9.25 -10.6875 Z M 9.25 -10.6875 "/></g></g><g style="fill:#004aad;fill-opacity:1;"><g transform="translate(37.625892, 31.382031)"><path style="stroke:none" d="M 6.46875 -20.796875 C 6.46875 -20.046875 6.316406 -19.613281 6.015625 -19.5 C 5.722656 -19.394531 5.398438 -19.332031 5.046875 -19.3125 C 4.898438 -19.289062 4.753906 -19.285156 4.609375 -19.296875 C 4.460938 -19.304688 4.300781 -19.3125 4.125 -19.3125 L 2.09375 -19.3125 C 1.875 -19.3125 1.640625 -19.390625 1.390625 -19.546875 C 1.140625 -19.703125 1.015625 -20.03125 1.015625 -20.53125 L 1.015625 -20.828125 C 1.015625 -21.003906 1.007812 -21.164062 1 -21.3125 C 0.988281 -21.46875 0.984375 -21.644531 0.984375 -21.84375 C 0.984375 -22.476562 1.109375 -22.867188 1.359375 -23.015625 C 1.609375 -23.171875 1.910156 -23.25 2.265625 -23.25 C 2.660156 -23.25 3.007812 -23.238281 3.3125 -23.21875 C 3.613281 -23.195312 3.960938 -23.1875 4.359375 -23.1875 C 4.554688 -23.1875 4.722656 -23.195312 4.859375 -23.21875 C 5.003906 -23.238281 5.164062 -23.25 5.34375 -23.25 C 5.382812 -23.25 5.507812 -23.226562 5.71875 -23.1875 C 5.925781 -23.144531 6.109375 -23.023438 6.265625 -22.828125 C 6.328125 -22.765625 6.375 -22.578125 6.40625 -22.265625 C 6.445312 -21.960938 6.46875 -21.660156 6.46875 -21.359375 C 6.46875 -21.066406 6.46875 -20.878906 6.46875 -20.796875 Z M 6.5 -16.828125 C 6.5 -16.453125 6.476562 -16.109375 6.4375 -15.796875 C 6.40625 -15.492188 6.390625 -15.160156 6.390625 -14.796875 C 6.390625 -14.304688 6.394531 -13.859375 6.40625 -13.453125 C 6.414062 -13.054688 6.421875 -12.609375 6.421875 -12.109375 C 6.421875 -11.617188 6.414062 -11.175781 6.40625 -10.78125 C 6.394531 -10.394531 6.390625 -9.953125 6.390625 -9.453125 C 6.390625 -9.097656 6.398438 -8.789062 6.421875 -8.53125 C 6.453125 -8.269531 6.46875 -7.972656 6.46875 -7.640625 L 6.46875 -4.421875 C 6.46875 -4.421875 6.46875 -4.226562 6.46875 -3.84375 C 6.46875 -3.46875 6.457031 -3.023438 6.4375 -2.515625 C 6.425781 -2.015625 6.421875 -1.570312 6.421875 -1.1875 C 6.421875 -0.8125 6.421875 -0.625 6.421875 -0.625 C 6.398438 -0.5625 6.390625 -0.507812 6.390625 -0.46875 C 6.390625 -0.4375 6.335938 -0.367188 6.234375 -0.265625 C 6.140625 -0.148438 5.992188 -0.0820312 5.796875 -0.0625 C 5.609375 -0.0390625 5.367188 -0.03125 5.078125 -0.03125 C 4.796875 -0.03125 4.53125 -0.0390625 4.28125 -0.0625 C 4.03125 -0.0820312 3.75 -0.09375 3.4375 -0.09375 C 3.175781 -0.09375 2.9375 -0.078125 2.71875 -0.046875 C 2.5 -0.015625 2.257812 0 2 0 C 1.457031 0 1.144531 -0.171875 1.0625 -0.515625 C 0.988281 -0.867188 0.953125 -1.210938 0.953125 -1.546875 L 0.953125 -1.640625 C 0.953125 -2.035156 0.960938 -2.394531 0.984375 -2.71875 C 1.003906 -3.050781 1.015625 -3.410156 1.015625 -3.796875 C 1.015625 -4.304688 1.003906 -4.757812 0.984375 -5.15625 C 0.960938 -5.5625 0.953125 -6.019531 0.953125 -6.53125 C 0.953125 -7.1875 0.960938 -7.773438 0.984375 -8.296875 C 1.003906 -8.816406 1.015625 -9.40625 1.015625 -10.0625 C 1.015625 -10.695312 1 -11.269531 0.96875 -11.78125 C 0.9375 -12.300781 0.929688 -12.867188 0.953125 -13.484375 C 0.953125 -13.804688 0.957031 -14.097656 0.96875 -14.359375 C 0.976562 -14.628906 0.984375 -14.914062 0.984375 -15.21875 C 0.984375 -15.476562 0.976562 -15.707031 0.96875 -15.90625 C 0.957031 -16.101562 0.953125 -16.332031 0.953125 -16.59375 C 0.953125 -16.894531 0.960938 -17.144531 0.984375 -17.34375 C 1.003906 -17.539062 1.09375 -17.707031 1.25 -17.84375 C 1.425781 -18.019531 1.804688 -18.101562 2.390625 -18.09375 C 2.984375 -18.082031 3.585938 -18.085938 4.203125 -18.109375 C 4.703125 -18.109375 5.125 -18.109375 5.46875 -18.109375 C 5.820312 -18.109375 6.085938 -18.007812 6.265625 -17.8125 C 6.421875 -17.613281 6.5 -17.285156 6.5 -16.828125 Z M 6.5 -16.828125 "/></g></g><g style="fill:#004aad;fill-opacity:1;"><g transform="translate(43.528671, 31.382031)"><path style="stroke:none" d="M 10.140625 -17.453125 C 10.140625 -17.296875 10.125 -17.15625 10.09375 -17.03125 C 10.070312 -16.914062 10.0625 -16.78125 10.0625 -16.625 C 10.0625 -16.445312 10.066406 -16.285156 10.078125 -16.140625 C 10.085938 -16.003906 10.09375 -15.847656 10.09375 -15.671875 C 10.09375 -15.253906 10.082031 -14.875 10.0625 -14.53125 C 10.039062 -14.195312 10.039062 -13.820312 10.0625 -13.40625 C 10.082031 -13.257812 10.09375 -13.125 10.09375 -13 C 10.09375 -12.882812 10.09375 -12.738281 10.09375 -12.5625 C 10.09375 -12.300781 10.054688 -12.035156 9.984375 -11.765625 C 9.910156 -11.503906 9.664062 -11.375 9.25 -11.375 C 9.09375 -11.375 8.945312 -11.390625 8.8125 -11.421875 C 8.6875 -11.460938 8.535156 -11.484375 8.359375 -11.484375 C 8.015625 -11.484375 7.675781 -11.351562 7.34375 -11.09375 C 7.019531 -10.84375 6.789062 -10.523438 6.65625 -10.140625 C 6.59375 -9.984375 6.5625 -9.796875 6.5625 -9.578125 C 6.5625 -9.359375 6.5625 -9.179688 6.5625 -9.046875 L 6.5625 -7.9375 C 6.5625 -7.476562 6.5625 -7.066406 6.5625 -6.703125 C 6.5625 -6.347656 6.550781 -5.953125 6.53125 -5.515625 C 6.53125 -5.296875 6.519531 -5.085938 6.5 -4.890625 C 6.476562 -4.691406 6.46875 -4.472656 6.46875 -4.234375 L 6.46875 -3.671875 C 6.46875 -3.328125 6.457031 -3.007812 6.4375 -2.71875 C 6.425781 -2.4375 6.4375 -2.109375 6.46875 -1.734375 C 6.488281 -1.585938 6.503906 -1.453125 6.515625 -1.328125 C 6.523438 -1.203125 6.53125 -1.066406 6.53125 -0.921875 C 6.53125 -0.609375 6.457031 -0.367188 6.3125 -0.203125 C 6.164062 -0.046875 5.84375 0.03125 5.34375 0.03125 C 5.0625 0.03125 4.785156 0.0234375 4.515625 0.015625 C 4.253906 0.00390625 3.984375 0 3.703125 0 C 3.378906 0 3.085938 0.0078125 2.828125 0.03125 C 2.578125 0.0507812 2.289062 0.0625 1.96875 0.0625 C 1.613281 0.0625 1.367188 -0.015625 1.234375 -0.171875 C 1.109375 -0.335938 1.039062 -0.515625 1.03125 -0.703125 C 1.019531 -0.890625 1.015625 -1.015625 1.015625 -1.078125 C 1.015625 -1.316406 1.03125 -1.535156 1.0625 -1.734375 C 1.09375 -1.929688 1.109375 -2.148438 1.109375 -2.390625 C 1.109375 -2.847656 1.097656 -3.265625 1.078125 -3.640625 C 1.054688 -4.015625 1.046875 -4.441406 1.046875 -4.921875 L 1.046875 -5.671875 C 1.046875 -6.109375 1.054688 -6.507812 1.078125 -6.875 C 1.097656 -7.25 1.117188 -7.671875 1.140625 -8.140625 C 1.171875 -8.765625 1.15625 -9.335938 1.09375 -9.859375 C 1.039062 -10.390625 1.015625 -10.972656 1.015625 -11.609375 C 1.015625 -12.160156 1.03125 -12.644531 1.0625 -13.0625 C 1.09375 -13.488281 1.109375 -13.96875 1.109375 -14.5 C 1.109375 -14.863281 1.097656 -15.203125 1.078125 -15.515625 C 1.054688 -15.835938 1.046875 -16.1875 1.046875 -16.5625 C 1.046875 -16.914062 1.085938 -17.265625 1.171875 -17.609375 C 1.265625 -17.960938 1.570312 -18.148438 2.09375 -18.171875 C 2.40625 -18.191406 2.691406 -18.179688 2.953125 -18.140625 C 3.210938 -18.097656 3.492188 -18.078125 3.796875 -18.078125 C 4.148438 -18.078125 4.46875 -18.085938 4.75 -18.109375 C 5.039062 -18.128906 5.359375 -18.140625 5.703125 -18.140625 C 5.921875 -18.140625 6.125 -18.097656 6.3125 -18.015625 C 6.5 -17.941406 6.59375 -17.753906 6.59375 -17.453125 C 6.59375 -17.335938 6.582031 -17.226562 6.5625 -17.125 C 6.539062 -17.03125 6.53125 -16.929688 6.53125 -16.828125 C 6.53125 -16.671875 6.5625 -16.570312 6.625 -16.53125 C 6.726562 -16.507812 6.859375 -16.625 7.015625 -16.875 C 7.171875 -17.125 7.269531 -17.269531 7.3125 -17.3125 C 7.507812 -17.550781 7.738281 -17.773438 8 -17.984375 C 8.257812 -18.191406 8.664062 -18.296875 9.21875 -18.296875 C 9.476562 -18.296875 9.695312 -18.21875 9.875 -18.0625 C 10.050781 -17.914062 10.140625 -17.710938 10.140625 -17.453125 Z M 10.140625 -17.453125 "/></g></g><g style="fill:#004aad;fill-opacity:1;"><g transform="translate(52.186283, 31.382031)"><path style="stroke:none" d="M 14.265625 -10.03125 C 14.265625 -9.6875 14.25 -9.367188 14.21875 -9.078125 C 14.1875 -8.796875 14.171875 -8.484375 14.171875 -8.140625 C 14.171875 -7.546875 14.117188 -6.863281 14.015625 -6.09375 C 13.921875 -5.332031 13.726562 -4.550781 13.4375 -3.75 C 13.15625 -2.957031 12.753906 -2.238281 12.234375 -1.59375 C 11.710938 -0.945312 11.035156 -0.457031 10.203125 -0.125 C 9.847656 0 9.566406 0.078125 9.359375 0.109375 C 9.148438 0.140625 8.972656 0.15625 8.828125 0.15625 C 8.410156 0.15625 8.070312 0.117188 7.8125 0.046875 C 7.5625 -0.0234375 7.34375 -0.09375 7.15625 -0.15625 C 7.082031 -0.207031 6.90625 -0.304688 6.625 -0.453125 C 6.34375 -0.609375 6.164062 -0.6875 6.09375 -0.6875 C 5.945312 -0.6875 5.875 -0.578125 5.875 -0.359375 C 5.875 -0.273438 5.84375 -0.1875 5.78125 -0.09375 C 5.726562 -0.0078125 5.601562 0.03125 5.40625 0.03125 C 5.300781 0.03125 5.191406 0.0234375 5.078125 0.015625 C 4.972656 0.00390625 4.863281 0 4.75 0 L 3.578125 0 C 3.296875 0 3.046875 0.00390625 2.828125 0.015625 C 2.609375 0.0234375 2.351562 0.03125 2.0625 0.03125 C 1.71875 0.03125 1.453125 -0.0351562 1.265625 -0.171875 C 1.078125 -0.316406 0.984375 -0.585938 0.984375 -0.984375 C 0.984375 -1.378906 1 -1.734375 1.03125 -2.046875 C 1.0625 -2.367188 1.078125 -2.722656 1.078125 -3.109375 C 1.078125 -3.679688 1.066406 -4.203125 1.046875 -4.671875 C 1.023438 -5.140625 1.015625 -5.660156 1.015625 -6.234375 C 1.015625 -6.890625 1.023438 -7.476562 1.046875 -8 C 1.066406 -8.53125 1.066406 -9.132812 1.046875 -9.8125 C 1.046875 -10.3125 1.035156 -10.773438 1.015625 -11.203125 C 0.992188 -11.628906 0.984375 -12.09375 0.984375 -12.59375 C 0.984375 -13.25 0.992188 -13.832031 1.015625 -14.34375 C 1.035156 -14.863281 1.046875 -15.453125 1.046875 -16.109375 C 1.046875 -16.710938 1.023438 -17.253906 0.984375 -17.734375 C 0.941406 -18.222656 0.929688 -18.773438 0.953125 -19.390625 C 0.953125 -19.671875 0.960938 -19.941406 0.984375 -20.203125 C 1.003906 -20.460938 1.015625 -20.722656 1.015625 -20.984375 C 1.015625 -21.160156 1.007812 -21.316406 1 -21.453125 C 0.988281 -21.597656 0.984375 -21.75 0.984375 -21.90625 C 0.984375 -22.34375 1.0625 -22.648438 1.21875 -22.828125 C 1.382812 -23.003906 1.578125 -23.101562 1.796875 -23.125 C 2.015625 -23.144531 2.191406 -23.15625 2.328125 -23.15625 L 5.375 -23.15625 C 5.707031 -23.15625 5.941406 -23.078125 6.078125 -22.921875 C 6.222656 -22.773438 6.304688 -22.613281 6.328125 -22.4375 C 6.347656 -22.257812 6.359375 -22.128906 6.359375 -22.046875 C 6.359375 -21.773438 6.347656 -21.535156 6.328125 -21.328125 C 6.304688 -21.117188 6.296875 -20.875 6.296875 -20.59375 C 6.296875 -20.570312 6.300781 -20.425781 6.3125 -20.15625 C 6.320312 -19.882812 6.332031 -19.578125 6.34375 -19.234375 C 6.351562 -18.898438 6.363281 -18.597656 6.375 -18.328125 C 6.382812 -18.066406 6.390625 -17.925781 6.390625 -17.90625 C 6.441406 -17.800781 6.492188 -17.738281 6.546875 -17.71875 C 6.597656 -17.707031 6.632812 -17.703125 6.65625 -17.703125 C 6.695312 -17.703125 6.78125 -17.734375 6.90625 -17.796875 C 7.039062 -17.867188 7.175781 -17.925781 7.3125 -17.96875 C 7.394531 -17.988281 7.597656 -18.039062 7.921875 -18.125 C 8.253906 -18.21875 8.585938 -18.265625 8.921875 -18.265625 C 9.441406 -18.265625 10.0625 -18.128906 10.78125 -17.859375 C 11.507812 -17.585938 12.113281 -17.164062 12.59375 -16.59375 C 12.8125 -16.351562 13.015625 -16.015625 13.203125 -15.578125 C 13.390625 -15.140625 13.554688 -14.707031 13.703125 -14.28125 C 13.859375 -13.851562 13.957031 -13.507812 14 -13.25 C 14.039062 -13.050781 14.0625 -12.863281 14.0625 -12.6875 C 14.0625 -12.519531 14.078125 -12.328125 14.109375 -12.109375 C 14.148438 -11.816406 14.1875 -11.539062 14.21875 -11.28125 C 14.25 -11.019531 14.265625 -10.601562 14.265625 -10.03125 Z M 8.859375 -8.890625 C 8.859375 -9.609375 8.820312 -10.304688 8.75 -10.984375 C 8.6875 -11.660156 8.578125 -12.097656 8.421875 -12.296875 C 8.335938 -12.410156 8.234375 -12.519531 8.109375 -12.625 C 7.992188 -12.738281 7.816406 -12.796875 7.578125 -12.796875 C 7.515625 -12.796875 7.46875 -12.785156 7.4375 -12.765625 C 7.3125 -12.765625 7.160156 -12.695312 6.984375 -12.5625 C 6.703125 -12.320312 6.507812 -11.804688 6.40625 -11.015625 C 6.3125 -10.234375 6.265625 -9.40625 6.265625 -8.53125 C 6.265625 -8.050781 6.300781 -7.570312 6.375 -7.09375 C 6.457031 -6.625 6.585938 -6.238281 6.765625 -5.9375 C 6.953125 -5.632812 7.210938 -5.484375 7.546875 -5.484375 C 7.867188 -5.484375 8.117188 -5.632812 8.296875 -5.9375 C 8.472656 -6.238281 8.601562 -6.601562 8.6875 -7.03125 C 8.78125 -7.457031 8.832031 -7.84375 8.84375 -8.1875 C 8.851562 -8.539062 8.859375 -8.773438 8.859375 -8.890625 Z M 8.859375 -8.890625 "/></g></g><g style="fill:#004aad;fill-opacity:1;"><g transform="translate(65.59926, 31.382031)"><path style="stroke:none" d="M 14.0625 -13.09375 C 14.0625 -12.757812 14.054688 -12.46875 14.046875 -12.21875 C 14.035156 -11.96875 14.03125 -11.675781 14.03125 -11.34375 C 14.03125 -10.976562 14.035156 -10.640625 14.046875 -10.328125 C 14.054688 -10.023438 14.050781 -9.6875 14.03125 -9.3125 C 14.03125 -8.96875 14.019531 -8.644531 14 -8.34375 C 13.976562 -8.050781 13.96875 -7.726562 13.96875 -7.375 C 13.96875 -6.957031 13.976562 -6.570312 14 -6.21875 C 14.019531 -5.875 14.019531 -5.492188 14 -5.078125 C 14 -4.796875 13.988281 -4.546875 13.96875 -4.328125 C 13.945312 -4.109375 13.9375 -3.859375 13.9375 -3.578125 C 13.9375 -3.296875 13.945312 -3.046875 13.96875 -2.828125 C 13.988281 -2.609375 14 -2.351562 14 -2.0625 C 14 -1.476562 13.929688 -0.992188 13.796875 -0.609375 C 13.671875 -0.222656 13.378906 -0.03125 12.921875 -0.03125 C 12.660156 -0.03125 12.421875 -0.046875 12.203125 -0.078125 C 11.984375 -0.109375 11.734375 -0.125 11.453125 -0.125 C 11.117188 -0.125 10.816406 -0.109375 10.546875 -0.078125 C 10.273438 -0.046875 9.960938 -0.03125 9.609375 -0.03125 C 9.453125 -0.03125 9.222656 -0.078125 8.921875 -0.171875 C 8.617188 -0.273438 8.46875 -0.578125 8.46875 -1.078125 C 8.46875 -1.609375 8.492188 -2.078125 8.546875 -2.484375 C 8.597656 -2.898438 8.625 -3.375 8.625 -3.90625 C 8.625 -4.582031 8.609375 -5.175781 8.578125 -5.6875 C 8.546875 -6.207031 8.53125 -6.804688 8.53125 -7.484375 C 8.53125 -8.203125 8.554688 -8.847656 8.609375 -9.421875 C 8.660156 -10.003906 8.6875 -10.65625 8.6875 -11.375 C 8.6875 -11.425781 8.6875 -11.566406 8.6875 -11.796875 C 8.6875 -12.023438 8.625 -12.253906 8.5 -12.484375 C 8.382812 -12.710938 8.117188 -12.835938 7.703125 -12.859375 C 7.242188 -12.878906 6.929688 -12.742188 6.765625 -12.453125 C 6.609375 -12.171875 6.53125 -11.847656 6.53125 -11.484375 C 6.53125 -11.128906 6.519531 -10.84375 6.5 -10.625 C 6.476562 -10.144531 6.453125 -9.703125 6.421875 -9.296875 C 6.398438 -8.890625 6.390625 -8.4375 6.390625 -7.9375 C 6.390625 -7.65625 6.398438 -7.375 6.421875 -7.09375 C 6.453125 -6.820312 6.46875 -6.546875 6.46875 -6.265625 C 6.46875 -5.765625 6.445312 -5.257812 6.40625 -4.75 C 6.375 -4.25 6.359375 -3.75 6.359375 -3.25 C 6.359375 -2.832031 6.375 -2.460938 6.40625 -2.140625 C 6.445312 -1.828125 6.46875 -1.472656 6.46875 -1.078125 C 6.46875 -0.796875 6.410156 -0.546875 6.296875 -0.328125 C 6.191406 -0.109375 5.960938 0 5.609375 0 C 5.210938 0 4.851562 -0.0078125 4.53125 -0.03125 C 4.21875 -0.0507812 3.863281 -0.0625 3.46875 -0.0625 C 3.1875 -0.0625 2.9375 -0.0507812 2.71875 -0.03125 C 2.5 -0.0078125 2.25 0 1.96875 0 C 1.632812 0 1.40625 -0.0859375 1.28125 -0.265625 C 1.164062 -0.441406 1.097656 -0.625 1.078125 -0.8125 C 1.054688 -1.007812 1.046875 -1.132812 1.046875 -1.1875 C 1.046875 -1.59375 1.054688 -1.953125 1.078125 -2.265625 C 1.097656 -2.585938 1.109375 -2.957031 1.109375 -3.375 L 1.109375 -3.609375 C 1.109375 -4.171875 1.09375 -4.738281 1.0625 -5.3125 C 1.03125 -5.882812 1.015625 -6.441406 1.015625 -6.984375 C 1.015625 -7.816406 1.039062 -8.566406 1.09375 -9.234375 C 1.15625 -9.898438 1.1875 -10.640625 1.1875 -11.453125 L 1.1875 -14 C 1.1875 -14.4375 1.164062 -14.816406 1.125 -15.140625 C 1.09375 -15.472656 1.085938 -15.847656 1.109375 -16.265625 C 1.109375 -16.523438 1.117188 -16.796875 1.140625 -17.078125 C 1.171875 -17.367188 1.265625 -17.613281 1.421875 -17.8125 C 1.585938 -18.007812 1.878906 -18.109375 2.296875 -18.109375 C 2.535156 -18.109375 2.753906 -18.09375 2.953125 -18.0625 C 3.148438 -18.039062 3.367188 -18.03125 3.609375 -18.03125 C 3.847656 -18.03125 4.054688 -18.03125 4.234375 -18.03125 C 4.410156 -18.03125 4.609375 -18.046875 4.828125 -18.078125 C 4.953125 -18.097656 5.066406 -18.113281 5.171875 -18.125 C 5.285156 -18.132812 5.421875 -18.140625 5.578125 -18.140625 C 5.773438 -18.140625 5.90625 -18.117188 5.96875 -18.078125 C 6.03125 -18.046875 6.109375 -17.976562 6.203125 -17.875 C 6.222656 -17.851562 6.234375 -17.832031 6.234375 -17.8125 C 6.234375 -17.789062 6.242188 -17.78125 6.265625 -17.78125 C 6.285156 -17.757812 6.289062 -17.722656 6.28125 -17.671875 C 6.269531 -17.628906 6.273438 -17.597656 6.296875 -17.578125 C 6.335938 -17.515625 6.363281 -17.4375 6.375 -17.34375 C 6.382812 -17.257812 6.445312 -17.21875 6.5625 -17.21875 C 6.601562 -17.195312 6.738281 -17.265625 6.96875 -17.421875 C 7.195312 -17.585938 7.410156 -17.71875 7.609375 -17.8125 C 7.804688 -17.914062 8.082031 -18.019531 8.4375 -18.125 C 8.800781 -18.238281 9.222656 -18.296875 9.703125 -18.296875 C 10.535156 -18.296875 11.328125 -18.066406 12.078125 -17.609375 C 12.835938 -17.148438 13.390625 -16.429688 13.734375 -15.453125 C 13.910156 -14.992188 14.007812 -14.5 14.03125 -13.96875 C 14.050781 -13.445312 14.0625 -13.15625 14.0625 -13.09375 Z M 14.0625 -13.09375 "/></g></g><g style="fill:#004aad;fill-opacity:1;"><g transform="translate(79.012236, 31.382031)"><path style="stroke:none" d="M 14.265625 -10.03125 C 14.265625 -9.6875 14.25 -9.367188 14.21875 -9.078125 C 14.1875 -8.796875 14.171875 -8.484375 14.171875 -8.140625 C 14.171875 -7.546875 14.117188 -6.863281 14.015625 -6.09375 C 13.921875 -5.332031 13.726562 -4.550781 13.4375 -3.75 C 13.15625 -2.957031 12.753906 -2.238281 12.234375 -1.59375 C 11.710938 -0.945312 11.035156 -0.457031 10.203125 -0.125 C 9.847656 0 9.566406 0.078125 9.359375 0.109375 C 9.148438 0.140625 8.972656 0.15625 8.828125 0.15625 C 8.410156 0.15625 8.070312 0.117188 7.8125 0.046875 C 7.5625 -0.0234375 7.34375 -0.09375 7.15625 -0.15625 C 7.082031 -0.207031 6.90625 -0.304688 6.625 -0.453125 C 6.34375 -0.609375 6.164062 -0.6875 6.09375 -0.6875 C 5.945312 -0.6875 5.875 -0.578125 5.875 -0.359375 C 5.875 -0.273438 5.84375 -0.1875 5.78125 -0.09375 C 5.726562 -0.0078125 5.601562 0.03125 5.40625 0.03125 C 5.300781 0.03125 5.191406 0.0234375 5.078125 0.015625 C 4.972656 0.00390625 4.863281 0 4.75 0 L 3.578125 0 C 3.296875 0 3.046875 0.00390625 2.828125 0.015625 C 2.609375 0.0234375 2.351562 0.03125 2.0625 0.03125 C 1.71875 0.03125 1.453125 -0.0351562 1.265625 -0.171875 C 1.078125 -0.316406 0.984375 -0.585938 0.984375 -0.984375 C 0.984375 -1.378906 1 -1.734375 1.03125 -2.046875 C 1.0625 -2.367188 1.078125 -2.722656 1.078125 -3.109375 C 1.078125 -3.679688 1.066406 -4.203125 1.046875 -4.671875 C 1.023438 -5.140625 1.015625 -5.660156 1.015625 -6.234375 C 1.015625 -6.890625 1.023438 -7.476562 1.046875 -8 C 1.066406 -8.53125 1.066406 -9.132812 1.046875 -9.8125 C 1.046875 -10.3125 1.035156 -10.773438 1.015625 -11.203125 C 0.992188 -11.628906 0.984375 -12.09375 0.984375 -12.59375 C 0.984375 -13.25 0.992188 -13.832031 1.015625 -14.34375 C 1.035156 -14.863281 1.046875 -15.453125 1.046875 -16.109375 C 1.046875 -16.710938 1.023438 -17.253906 0.984375 -17.734375 C 0.941406 -18.222656 0.929688 -18.773438 0.953125 -19.390625 C 0.953125 -19.671875 0.960938 -19.941406 0.984375 -20.203125 C 1.003906 -20.460938 1.015625 -20.722656 1.015625 -20.984375 C 1.015625 -21.160156 1.007812 -21.316406 1 -21.453125 C 0.988281 -21.597656 0.984375 -21.75 0.984375 -21.90625 C 0.984375 -22.34375 1.0625 -22.648438 1.21875 -22.828125 C 1.382812 -23.003906 1.578125 -23.101562 1.796875 -23.125 C 2.015625 -23.144531 2.191406 -23.15625 2.328125 -23.15625 L 5.375 -23.15625 C 5.707031 -23.15625 5.941406 -23.078125 6.078125 -22.921875 C 6.222656 -22.773438 6.304688 -22.613281 6.328125 -22.4375 C 6.347656 -22.257812 6.359375 -22.128906 6.359375 -22.046875 C 6.359375 -21.773438 6.347656 -21.535156 6.328125 -21.328125 C 6.304688 -21.117188 6.296875 -20.875 6.296875 -20.59375 C 6.296875 -20.570312 6.300781 -20.425781 6.3125 -20.15625 C 6.320312 -19.882812 6.332031 -19.578125 6.34375 -19.234375 C 6.351562 -18.898438 6.363281 -18.597656 6.375 -18.328125 C 6.382812 -18.066406 6.390625 -17.925781 6.390625 -17.90625 C 6.441406 -17.800781 6.492188 -17.738281 6.546875 -17.71875 C 6.597656 -17.707031 6.632812 -17.703125 6.65625 -17.703125 C 6.695312 -17.703125 6.78125 -17.734375 6.90625 -17.796875 C 7.039062 -17.867188 7.175781 -17.925781 7.3125 -17.96875 C 7.394531 -17.988281 7.597656 -18.039062 7.921875 -18.125 C 8.253906 -18.21875 8.585938 -18.265625 8.921875 -18.265625 C 9.441406 -18.265625 10.0625 -18.128906 10.78125 -17.859375 C 11.507812 -17.585938 12.113281 -17.164062 12.59375 -16.59375 C 12.8125 -16.351562 13.015625 -16.015625 13.203125 -15.578125 C 13.390625 -15.140625 13.554688 -14.707031 13.703125 -14.28125 C 13.859375 -13.851562 13.957031 -13.507812 14 -13.25 C 14.039062 -13.050781 14.0625 -12.863281 14.0625 -12.6875 C 14.0625 -12.519531 14.078125 -12.328125 14.109375 -12.109375 C 14.148438 -11.816406 14.1875 -11.539062 14.21875 -11.28125 C 14.25 -11.019531 14.265625 -10.601562 14.265625 -10.03125 Z M 8.859375 -8.890625 C 8.859375 -9.609375 8.820312 -10.304688 8.75 -10.984375 C 8.6875 -11.660156 8.578125 -12.097656 8.421875 -12.296875 C 8.335938 -12.410156 8.234375 -12.519531 8.109375 -12.625 C 7.992188 -12.738281 7.816406 -12.796875 7.578125 -12.796875 C 7.515625 -12.796875 7.46875 -12.785156 7.4375 -12.765625 C 7.3125 -12.765625 7.160156 -12.695312 6.984375 -12.5625 C 6.703125 -12.320312 6.507812 -11.804688 6.40625 -11.015625 C 6.3125 -10.234375 6.265625 -9.40625 6.265625 -8.53125 C 6.265625 -8.050781 6.300781 -7.570312 6.375 -7.09375 C 6.457031 -6.625 6.585938 -6.238281 6.765625 -5.9375 C 6.953125 -5.632812 7.210938 -5.484375 7.546875 -5.484375 C 7.867188 -5.484375 8.117188 -5.632812 8.296875 -5.9375 C 8.472656 -6.238281 8.601562 -6.601562 8.6875 -7.03125 C 8.78125 -7.457031 8.832031 -7.84375 8.84375 -8.1875 C 8.851562 -8.539062 8.859375 -8.773438 8.859375 -8.890625 Z M 8.859375 -8.890625 "/></g></g><g style="fill:#8c52ff;fill-opacity:1;"><g transform="translate(49.950582, 37.604377)"><path style="stroke:none" d="M 1.875 0 L 1.875 -0.609375 L 0.96875 -0.578125 L 0.96875 -1.21875 L 1.625 -1.171875 L 1.625 -1.75 L 0.96875 -1.75 L 0.96875 -2.296875 L 1.796875 -2.265625 L 1.84375 -2.84375 L 0.15625 -2.84375 L 0.15625 0 Z M 1.875 0 "/></g></g><g style="fill:#8c52ff;fill-opacity:1;"><g transform="translate(51.88927, 37.604377)"><path style="stroke:none" d="M 1 0.046875 C 1.300781 0.046875 1.53125 -0.0351562 1.6875 -0.203125 C 1.84375 -0.367188 1.921875 -0.613281 1.921875 -0.9375 C 1.921875 -1.125 1.863281 -1.285156 1.75 -1.421875 C 1.644531 -1.566406 1.476562 -1.6875 1.25 -1.78125 C 1.21875 -1.800781 1.179688 -1.820312 1.140625 -1.84375 C 1.097656 -1.863281 1.0625 -1.878906 1.03125 -1.890625 C 1.007812 -1.910156 0.984375 -1.929688 0.953125 -1.953125 C 0.921875 -1.984375 0.898438 -2.007812 0.890625 -2.03125 C 0.878906 -2.0625 0.875 -2.09375 0.875 -2.125 C 0.875 -2.257812 0.976562 -2.328125 1.1875 -2.328125 C 1.269531 -2.328125 1.359375 -2.304688 1.453125 -2.265625 C 1.546875 -2.234375 1.625 -2.179688 1.6875 -2.109375 L 1.8125 -2.5625 C 1.800781 -2.570312 1.789062 -2.582031 1.78125 -2.59375 C 1.769531 -2.613281 1.742188 -2.640625 1.703125 -2.671875 C 1.660156 -2.710938 1.613281 -2.742188 1.5625 -2.765625 C 1.507812 -2.785156 1.4375 -2.804688 1.34375 -2.828125 C 1.257812 -2.859375 1.164062 -2.875 1.0625 -2.875 C 0.40625 -2.875 0.078125 -2.582031 0.078125 -2 C 0.078125 -1.894531 0.09375 -1.796875 0.125 -1.703125 C 0.15625 -1.609375 0.191406 -1.53125 0.234375 -1.46875 C 0.285156 -1.414062 0.34375 -1.363281 0.40625 -1.3125 C 0.46875 -1.257812 0.519531 -1.21875 0.5625 -1.1875 C 0.601562 -1.164062 0.65625 -1.140625 0.71875 -1.109375 C 0.875 -1.035156 0.984375 -0.96875 1.046875 -0.90625 C 1.117188 -0.851562 1.15625 -0.789062 1.15625 -0.71875 C 1.15625 -0.644531 1.125 -0.59375 1.0625 -0.5625 C 1.007812 -0.539062 0.914062 -0.53125 0.78125 -0.53125 C 0.65625 -0.53125 0.535156 -0.5625 0.421875 -0.625 C 0.304688 -0.6875 0.21875 -0.765625 0.15625 -0.859375 L 0.09375 -0.265625 C 0.125 -0.234375 0.160156 -0.203125 0.203125 -0.171875 C 0.253906 -0.140625 0.316406 -0.101562 0.390625 -0.0625 C 0.460938 -0.03125 0.550781 -0.00390625 0.65625 0.015625 C 0.769531 0.0351562 0.882812 0.046875 1 0.046875 Z M 1 0.046875 "/></g></g><g style="fill:#8c52ff;fill-opacity:1;"><g transform="translate(53.910345, 37.604377)"><path style="stroke:none" d="M 0.609375 0 L 1.4375 0 L 1.4375 -2.203125 L 2 -2.203125 L 2 -2.84375 L 0.046875 -2.84375 L 0.046875 -2.203125 L 0.609375 -2.203125 Z M 0.609375 0 "/></g></g><g style="fill:#8c52ff;fill-opacity:1;"><g transform="translate(55.960503, 37.604377)"><path style="stroke:none" d="M 0.4375 0.046875 L 0.53125 0.046875 L 0.9375 -0.359375 L 0.9375 -0.4375 L 0.53125 -0.828125 L 0.4375 -0.828125 L 0.03125 -0.4375 L 0.03125 -0.359375 Z M 0.4375 0.046875 "/></g></g><g style="fill:#8c52ff;fill-opacity:1;"><g transform="translate(56.951659, 37.604377)"><path style="stroke:none" d=""/></g></g><g style="fill:#8c52ff;fill-opacity:1;"><g transform="translate(57.920999, 37.604377)"><path style="stroke:none" d="M 0.484375 0 L 1.296875 0 L 1.296875 -2.84375 L 0.765625 -2.84375 C 0.734375 -2.75 0.691406 -2.671875 0.640625 -2.609375 C 0.585938 -2.554688 0.523438 -2.507812 0.453125 -2.46875 C 0.390625 -2.4375 0.328125 -2.410156 0.265625 -2.390625 C 0.210938 -2.378906 0.140625 -2.367188 0.046875 -2.359375 L 0.046875 -1.84375 L 0.484375 -1.890625 Z M 0.484375 0 "/></g></g><g style="fill:#8c52ff;fill-opacity:1;"><g transform="translate(59.508295, 37.604377)"><path style="stroke:none" d="M 1.171875 0.046875 C 1.421875 0.046875 1.640625 -0.0195312 1.828125 -0.15625 C 2.023438 -0.300781 2.171875 -0.5 2.265625 -0.75 C 2.367188 -1.007812 2.421875 -1.296875 2.421875 -1.609375 C 2.421875 -1.984375 2.316406 -2.285156 2.109375 -2.515625 C 1.898438 -2.753906 1.628906 -2.875 1.296875 -2.875 C 1.078125 -2.875 0.878906 -2.832031 0.703125 -2.75 C 0.535156 -2.664062 0.398438 -2.539062 0.296875 -2.375 C 0.191406 -2.21875 0.140625 -2.035156 0.140625 -1.828125 C 0.140625 -1.554688 0.222656 -1.328125 0.390625 -1.140625 C 0.554688 -0.953125 0.757812 -0.859375 1 -0.859375 C 1.082031 -0.859375 1.164062 -0.867188 1.25 -0.890625 C 1.34375 -0.921875 1.421875 -0.960938 1.484375 -1.015625 L 1.484375 -0.90625 C 1.484375 -0.832031 1.453125 -0.753906 1.390625 -0.671875 C 1.335938 -0.597656 1.269531 -0.539062 1.1875 -0.5 C 1.101562 -0.457031 1.015625 -0.4375 0.921875 -0.4375 C 0.921875 -0.4375 0.910156 -0.4375 0.890625 -0.4375 C 0.867188 -0.4375 0.851562 -0.4375 0.84375 -0.4375 C 0.832031 -0.4375 0.8125 -0.4375 0.78125 -0.4375 C 0.757812 -0.4375 0.738281 -0.441406 0.71875 -0.453125 C 0.695312 -0.460938 0.671875 -0.46875 0.640625 -0.46875 C 0.617188 -0.476562 0.59375 -0.488281 0.5625 -0.5 C 0.53125 -0.519531 0.5 -0.539062 0.46875 -0.5625 L 0.328125 -0.21875 L 0.328125 -0.203125 C 0.546875 -0.0351562 0.828125 0.046875 1.171875 0.046875 Z M 1.28125 -2.390625 C 1.34375 -2.390625 1.394531 -2.367188 1.4375 -2.328125 C 1.488281 -2.285156 1.515625 -2.238281 1.515625 -2.1875 L 1.515625 -1.515625 C 1.503906 -1.472656 1.472656 -1.429688 1.421875 -1.390625 C 1.378906 -1.359375 1.332031 -1.34375 1.28125 -1.34375 C 1.226562 -1.34375 1.175781 -1.363281 1.125 -1.40625 C 1.082031 -1.445312 1.0625 -1.492188 1.0625 -1.546875 L 1.0625 -2.1875 C 1.0625 -2.238281 1.082031 -2.285156 1.125 -2.328125 C 1.175781 -2.367188 1.226562 -2.390625 1.28125 -2.390625 Z M 1.28125 -2.390625 "/></g></g><g style="fill:#8c52ff;fill-opacity:1;"><g transform="translate(62.173987, 37.604377)"><path style="stroke:none" d="M 1.171875 0.046875 C 1.421875 0.046875 1.640625 -0.0195312 1.828125 -0.15625 C 2.023438 -0.300781 2.171875 -0.5 2.265625 -0.75 C 2.367188 -1.007812 2.421875 -1.296875 2.421875 -1.609375 C 2.421875 -1.984375 2.316406 -2.285156 2.109375 -2.515625 C 1.898438 -2.753906 1.628906 -2.875 1.296875 -2.875 C 1.078125 -2.875 0.878906 -2.832031 0.703125 -2.75 C 0.535156 -2.664062 0.398438 -2.539062 0.296875 -2.375 C 0.191406 -2.21875 0.140625 -2.035156 0.140625 -1.828125 C 0.140625 -1.554688 0.222656 -1.328125 0.390625 -1.140625 C 0.554688 -0.953125 0.757812 -0.859375 1 -0.859375 C 1.082031 -0.859375 1.164062 -0.867188 1.25 -0.890625 C 1.34375 -0.921875 1.421875 -0.960938 1.484375 -1.015625 L 1.484375 -0.90625 C 1.484375 -0.832031 1.453125 -0.753906 1.390625 -0.671875 C 1.335938 -0.597656 1.269531 -0.539062 1.1875 -0.5 C 1.101562 -0.457031 1.015625 -0.4375 0.921875 -0.4375 C 0.921875 -0.4375 0.910156 -0.4375 0.890625 -0.4375 C 0.867188 -0.4375 0.851562 -0.4375 0.84375 -0.4375 C 0.832031 -0.4375 0.8125 -0.4375 0.78125 -0.4375 C 0.757812 -0.4375 0.738281 -0.441406 0.71875 -0.453125 C 0.695312 -0.460938 0.671875 -0.46875 0.640625 -0.46875 C 0.617188 -0.476562 0.59375 -0.488281 0.5625 -0.5 C 0.53125 -0.519531 0.5 -0.539062 0.46875 -0.5625 L 0.328125 -0.21875 L 0.328125 -0.203125 C 0.546875 -0.0351562 0.828125 0.046875 1.171875 0.046875 Z M 1.28125 -2.390625 C 1.34375 -2.390625 1.394531 -2.367188 1.4375 -2.328125 C 1.488281 -2.285156 1.515625 -2.238281 1.515625 -2.1875 L 1.515625 -1.515625 C 1.503906 -1.472656 1.472656 -1.429688 1.421875 -1.390625 C 1.378906 -1.359375 1.332031 -1.34375 1.28125 -1.34375 C 1.226562 -1.34375 1.175781 -1.363281 1.125 -1.40625 C 1.082031 -1.445312 1.0625 -1.492188 1.0625 -1.546875 L 1.0625 -2.1875 C 1.0625 -2.238281 1.082031 -2.285156 1.125 -2.328125 C 1.175781 -2.367188 1.226562 -2.390625 1.28125 -2.390625 Z M 1.28125 -2.390625 "/></g></g><g style="fill:#8c52ff;fill-opacity:1;"><g transform="translate(64.83968, 37.604377)"><path style="stroke:none" d="M 0.453125 0 L 1.421875 0 C 1.421875 -0.0820312 1.421875 -0.171875 1.421875 -0.265625 C 1.421875 -0.535156 1.4375 -0.789062 1.46875 -1.03125 C 1.507812 -1.28125 1.5625 -1.492188 1.625 -1.671875 C 1.695312 -1.847656 1.765625 -1.992188 1.828125 -2.109375 C 1.898438 -2.234375 1.972656 -2.328125 2.046875 -2.390625 L 1.90625 -2.84375 L 0.09375 -2.84375 L 0.09375 -2.1875 L 1.40625 -2.25 C 1.226562 -2.101562 1.066406 -1.90625 0.921875 -1.65625 C 0.785156 -1.414062 0.675781 -1.15625 0.59375 -0.875 C 0.519531 -0.59375 0.472656 -0.300781 0.453125 0 Z M 0.453125 0 "/></g></g></g></svg>